# xmcd
#
# Track frame offsets:
#	150
#	15697
#	35376
#	50407
#	69486
#	86024
#	95484
#	123848
#	140643
#	158713
#	174042
#	189704
#	203084
#	226765
#	238380
#	253263
#	269341
#	278763
#	293616
#	308036
#
# Disc length: 4300 seconds
#
# Revision: 1
# Processed by: cddbd v1.5.1PL2 Copyright (c) Steve Scherf et al.
# Submitted via: audiograbber 1.83.01
#
DISCID=1610ca14
DTITLE=Dáridó - A babám
DYEAR=1900
DGENRE=Pop-Folk
TTITLE0=A babám fekete romalány
TTITLE1=Kicsi nékem ez a ház
TTITLE2=Angyalom galambom
TTITLE3=Hosszú fekete haj
TTITLE4=Homokóra
TTITLE5=Mikor jössz már én felém
TTITLE6=Lakodalom van...
TTITLE7=Ujra itt van a nagy csapat
TTITLE8=Vedlik a pulikutya
TTITLE9=Viva espania
TTITLE10=Szól a dáridó
TTITLE11=Kék a szeme
TTITLE12=Egy asszony miatt
TTITLE13=Egy szál harangvirág
TTITLE14=Midõn Havannában
TTITLE15=Ne hagyd el soha
TTITLE16=Zsuzsikám
TTITLE17=Azok a szép napok
TTITLE18=Haj de kutya jókedvem van
TTITLE19=Ez a vonat most van
EXTD=
EXTT0=
EXTT1=
EXTT2=
EXTT3=
EXTT4=
EXTT5=
EXTT6=
EXTT7=
EXTT8=
EXTT9=
EXTT10=
EXTT11=
EXTT12=
EXTT13=
EXTT14=
EXTT15=
EXTT16=
EXTT17=
EXTT18=
EXTT19=
PLAYORDER=
